<?xml version="1.0" encoding="UTF-8" standalone="no"?>
<svg
   xmlns:dc="http://purl.org/dc/elements/1.1/"
   xmlns:cc="http://creativecommons.org/ns#"
   xmlns:rdf="http://www.w3.org/1999/02/22-rdf-syntax-ns#"
   xmlns:svg="http://www.w3.org/2000/svg"
   xmlns="http://www.w3.org/2000/svg"
   width="250"
   height="32"
   viewBox="0 0 66.145832 8.4666669"
   version="1.1"
   id="svg34257">
  <defs
     id="defs34251" />
  <metadata
     id="metadata34254">
    <rdf:RDF>
      <cc:Work
         rdf:about="">
        <dc:format>image/svg+xml</dc:format>
        <dc:type
           rdf:resource="http://purl.org/dc/dcmitype/StillImage" />
        <dc:title></dc:title>
      </cc:Work>
    </rdf:RDF>
  </metadata>
  <g
     id="text11875-6"
     style="font-style:normal;font-weight:normal;font-size:20.00000191px;line-height:0%;font-family:sans-serif;letter-spacing:0px;word-spacing:0px;fill:#000000;fill-opacity:1;stroke:none;stroke-width:0.23177786"
     aria-label="krellianKiosk">
    <path
       id="path5722"
       style="font-style:normal;font-variant:normal;font-weight:normal;font-stretch:normal;font-size:10.58330917px;line-height:1.25;font-family:'Arial Rounded MT Bold';-inkscape-font-specification:'Arial Rounded MT Bold, ';fill:#ffffff;stroke-width:0.23177786"
       d="M 4.7307192,7.6723886 3.48532,5.6260066 2.7205106,6.349475 v 1.121376 q 0,0.4082429 -0.2170405,0.630451 -0.2118729,0.2170405 -0.490925,0.2170405 -0.3255608,0 -0.5115955,-0.2170405 Q 1.3149148,7.8842615 1.3149148,7.4605157 v -6.015123 q 0,-0.47025442 0.1808671,-0.71313309 Q 1.676649,0.4842133 2.0125451,0.4842133 q 0.3255607,0 0.5167631,0.22220815 0.1912024,0.22220815 0.1912024,0.65628915 v 3.420972 L 4.3069734,3.1197053 q 0.294555,-0.3100579 0.449584,-0.4237457 0.1550289,-0.1136879 0.3772371,-0.1136879 0.2635492,0 0.4392486,0.1705318 0.1756995,0.1653642 0.1756995,0.4185781 0,0.3100579 -0.5736071,0.8268211 l -0.7493066,0.687295 1.4469368,2.2737578 q 0.1601966,0.2532139 0.2273758,0.3875723 0.072347,0.1291908 0.072347,0.2480463 0,0.3358961 -0.1860348,0.5322661 -0.1808671,0.1912023 -0.4805897,0.1912023 -0.2583816,0 -0.3979076,-0.139526 Q 4.9684302,8.0392905 4.7307192,7.6723886 Z" />
    <path
       id="path5724"
       style="font-style:normal;font-variant:normal;font-weight:normal;font-stretch:normal;font-size:10.58330917px;line-height:1.25;font-family:'Arial Rounded MT Bold';-inkscape-font-specification:'Arial Rounded MT Bold, ';fill:#ffffff;stroke-width:0.23177786"
       d="m 8.6942926,6.2822958 v 1.1782199 q 0,0.4289134 -0.2015377,0.645954 -0.2015376,0.2118728 -0.5115955,0.2118728 -0.3048902,0 -0.5012602,-0.2170405 -0.19637,-0.2170405 -0.19637,-0.6407863 V 3.5331158 q 0,-0.9508441 0.687295,-0.9508441 0.3513989,0 0.5064278,0.2222081 Q 8.632281,3.026688 8.6477839,3.460769 8.9009978,3.026688 9.164547,2.8044798 9.4332638,2.5822717 9.8776802,2.5822717 q 0.4444158,0 0.8629948,0.2222081 0.418578,0.2222082 0.418578,0.58911 0,0.2583816 -0.180867,0.4289134 -0.1757,0.1653642 -0.382405,0.1653642 -0.07752,0 -0.377237,-0.093017 -0.2945552,-0.098185 -0.5219309,-0.098185 -0.3100579,0 -0.5064279,0.1653643 Q 8.9940152,4.1222258 8.8854949,4.442619 8.7769747,4.7630121 8.7356336,5.2074284 8.6942926,5.6466771 8.6942926,6.2822958 Z" />
    <path
       id="path5726"
       style="font-style:normal;font-variant:normal;font-weight:normal;font-stretch:normal;font-size:10.58330917px;line-height:1.25;font-family:'Arial Rounded MT Bold';-inkscape-font-specification:'Arial Rounded MT Bold, ';fill:#ffffff;stroke-width:0.23177786"
       d="m 15.603416,5.7965384 h -2.759515 q 0.0052,0.4805897 0.191202,0.8474916 0.191202,0.3669018 0.50126,0.5529365 0.315226,0.1860348 0.692463,0.1860348 0.253214,0 0.459919,-0.056844 0.211873,-0.062012 0.408243,-0.1860347 0.19637,-0.1291908 0.361734,-0.2738845 0.165364,-0.1446937 0.428913,-0.39274 0.108521,-0.093017 0.310058,-0.093017 0.217041,0 0.351399,0.1188555 0.134359,0.1188555 0.134359,0.335896 0,0.1912024 -0.149862,0.449584 -0.149861,0.2532139 -0.454751,0.4909249 -0.299723,0.2325435 -0.759642,0.3875724 -0.454752,0.1550289 -1.049029,0.1550289 -1.359087,0 -2.113561,-0.7751447 -0.754475,-0.7751447 -0.754475,-2.103226 0,-0.6252834 0.186035,-1.1575494 0.186035,-0.5374337 0.542601,-0.9198384 0.356567,-0.3824047 0.878498,-0.5839423 0.521931,-0.2067053 1.157549,-0.2067053 0.826821,0 1.415931,0.3513989 0.594278,0.3462313 0.888833,0.8991679 0.294555,0.5529366 0.294555,1.1265437 0,0.532266 -0.30489,0.6924626 -0.304891,0.1550289 -0.857827,0.1550289 z M 12.843901,4.9955555 h 2.557977 q -0.05168,-0.7234684 -0.39274,-1.0800349 -0.335896,-0.3617342 -0.888832,-0.3617342 -0.527099,0 -0.868163,0.3669018 -0.335896,0.3617342 -0.408242,1.0748673 z" />
    <path
       id="path5728"
       style="font-style:normal;font-variant:normal;font-weight:normal;font-stretch:normal;font-size:10.58330917px;line-height:1.25;font-family:'Arial Rounded MT Bold';-inkscape-font-specification:'Arial Rounded MT Bold, ';fill:#ffffff;stroke-width:0.23177786"
       d="M 17.959856,7.4605157 V 1.3420401 q 0,-0.42374576 0.186034,-0.64078628 0.191203,-0.21704052 0.511596,-0.21704052 0.320393,0 0.516763,0.21704052 0.19637,0.21187289 0.19637,0.64078628 v 6.1184756 q 0,0.4289134 -0.201538,0.645954 -0.196369,0.2118728 -0.511595,0.2118728 -0.310058,0 -0.506428,-0.2222081 -0.191202,-0.2222082 -0.191202,-0.6356187 z" />
    <path
       id="path5730"
       style="font-style:normal;font-variant:normal;font-weight:normal;font-stretch:normal;font-size:10.58330917px;line-height:1.25;font-family:'Arial Rounded MT Bold';-inkscape-font-specification:'Arial Rounded MT Bold, ';fill:#ffffff;stroke-width:0.23177786"
       d="M 20.833059,7.4605157 V 1.3420401 q 0,-0.42374576 0.186035,-0.64078628 0.191202,-0.21704052 0.511595,-0.21704052 0.320393,0 0.516763,0.21704052 0.19637,0.21187289 0.19637,0.64078628 v 6.1184756 q 0,0.4289134 -0.201537,0.645954 -0.19637,0.2118728 -0.511596,0.2118728 -0.310058,0 -0.506428,-0.2222081 -0.191202,-0.2222082 -0.191202,-0.6356187 z" />
    <path
       id="path5732"
       style="font-style:normal;font-variant:normal;font-weight:normal;font-stretch:normal;font-size:10.58330917px;line-height:1.25;font-family:'Arial Rounded MT Bold';-inkscape-font-specification:'Arial Rounded MT Bold, ';fill:#ffffff;stroke-width:0.23177786"
       d="m 25.117026,3.3832545 v 4.0772612 q 0,0.4237458 -0.201538,0.6407863 -0.201538,0.2170405 -0.511595,0.2170405 -0.310058,0 -0.506428,-0.2222081 Q 23.706262,7.8739262 23.706262,7.4605157 V 3.4245956 q 0,-0.4185782 0.191203,-0.6304511 0.19637,-0.2118728 0.506428,-0.2118728 0.310057,0 0.511595,0.2118728 0.201538,0.2118729 0.201538,0.58911 z m -0.697631,-1.457272 q -0.294555,0 -0.506427,-0.1808671 -0.206706,-0.1808671 -0.206706,-0.5115955 0,-0.29972267 0.211873,-0.49092503 0.217041,-0.19636999 0.50126,-0.19636999 0.273885,0 0.485758,0.17569946 0.211873,0.17569947 0.211873,0.51159556 0,0.3255607 -0.206706,0.5115955 -0.206705,0.1808671 -0.490925,0.1808671 z" />
    <path
       id="path5734"
       style="font-style:normal;font-variant:normal;font-weight:normal;font-stretch:normal;font-size:10.58330917px;line-height:1.25;font-family:'Arial Rounded MT Bold';-inkscape-font-specification:'Arial Rounded MT Bold, ';fill:#ffffff;stroke-width:0.23177786"
       d="m 30.145131,7.5225273 q -0.511595,0.3979076 -0.992185,0.5994453 -0.475422,0.1963699 -1.0697,0.1963699 -0.542601,0 -0.956011,-0.2118728 -0.408243,-0.2170406 -0.630452,-0.5839424 -0.222208,-0.3669018 -0.222208,-0.7958152 0,-0.5787748 0.366902,-0.9870176 0.366902,-0.4082429 1.007688,-0.547769 0.134359,-0.031006 0.666625,-0.139526 0.532266,-0.1085203 0.909503,-0.19637 0.382405,-0.093017 0.826821,-0.2222082 -0.02584,-0.5581042 -0.227376,-0.8164857 -0.19637,-0.2635492 -0.821653,-0.2635492 -0.537434,0 -0.811318,0.1498613 -0.268717,0.1498613 -0.465087,0.4495839 -0.191203,0.2997226 -0.273885,0.3979076 -0.07751,0.093017 -0.341063,0.093017 -0.237711,0 -0.413411,-0.1498613 -0.170532,-0.155029 -0.170532,-0.39274 0,-0.3720695 0.263549,-0.7234684 0.26355,-0.3513989 0.821654,-0.5787747 0.558104,-0.2273758 1.390093,-0.2273758 0.930173,0 1.462439,0.2222081 0.532266,0.2170406 0.749307,0.6924627 0.222208,0.4754221 0.222208,1.260902 0,0.4960926 -0.0052,0.842324 0,0.3462313 -0.0052,0.769977 0,0.3979077 0.129191,0.8319887 0.134358,0.4289134 0.134358,0.5529366 0,0.2170405 -0.206705,0.3979076 -0.201538,0.1756994 -0.459919,0.1756994 -0.217041,0 -0.428914,-0.2015376 -0.211873,-0.2067052 -0.449584,-0.5942776 z m -0.09302,-2.0412144 q -0.310058,0.1136879 -0.904336,0.2428787 -0.58911,0.1240231 -0.816485,0.1860347 -0.227376,0.056844 -0.434081,0.2325434 -0.206706,0.1705319 -0.206706,0.4805897 0,0.3203932 0.242879,0.547769 0.242879,0.2222081 0.635619,0.2222081 0.418578,0 0.769977,-0.1808671 0.356566,-0.1860347 0.521931,-0.4754221 0.191202,-0.3203931 0.191202,-1.0541968 z" />
    <path
       id="path5736"
       style="font-style:normal;font-variant:normal;font-weight:normal;font-stretch:normal;font-size:10.58330917px;line-height:1.25;font-family:'Arial Rounded MT Bold';-inkscape-font-specification:'Arial Rounded MT Bold, ';fill:#ffffff;stroke-width:0.23177786"
       d="m 34.144876,3.362584 v 0.1705318 q 0.37207,-0.4909249 0.811319,-0.7183007 0.444416,-0.2325434 1.018023,-0.2325434 0.558104,0 0.997353,0.2428786 0.439249,0.2428787 0.656289,0.687295 0.139526,0.2583816 0.180867,0.5581042 0.04134,0.2997226 0.04134,0.7648095 v 2.6251567 q 0,0.4237458 -0.19637,0.6407863 -0.191202,0.2170405 -0.50126,0.2170405 -0.315226,0 -0.511596,-0.2222081 -0.19637,-0.2222082 -0.19637,-0.6356187 V 5.1092434 q 0,-0.6976302 -0.19637,-1.064532 -0.191202,-0.3720695 -0.769977,-0.3720695 -0.377237,0 -0.687295,0.2273758 -0.310058,0.2222081 -0.454751,0.6149481 -0.103353,0.3152255 -0.103353,1.17822 v 1.7673299 q 0,0.4289134 -0.201537,0.645954 -0.19637,0.2118728 -0.511596,0.2118728 -0.30489,0 -0.50126,-0.2222081 -0.19637,-0.2222082 -0.19637,-0.6356187 V 3.3832545 q 0,-0.4030752 0.175699,-0.5994452 0.1757,-0.2015376 0.48059,-0.2015376 0.186035,0 0.335896,0.08785 0.149861,0.08785 0.237711,0.2635492 0.09302,0.1756995 0.09302,0.4289134 z" />
    <path
       id="path5738"
       style="font-style:normal;font-variant:normal;font-weight:normal;font-stretch:normal;font-family:'Open Sans';-inkscape-font-specification:'Open Sans';stroke-width:0.23177786;fill:#ffffff"
       d="M 45.017574,8.1891518 H 43.984048 L 41.2297,4.5253011 40.439053,5.228099 V 8.1891518 H 39.560555 V 0.63407461 h 0.878498 V 4.3806074 l 3.426139,-3.74653279 h 1.038694 L 41.865319,3.9155206 Z" />
    <path
       id="path5740"
       style="font-style:normal;font-variant:normal;font-weight:normal;font-stretch:normal;font-family:'Open Sans';-inkscape-font-specification:'Open Sans';stroke-width:0.23177786;fill:#ffffff"
       d="M 46.779735,8.1891518 H 45.921908 V 2.5254277 h 0.857827 z M 45.849561,0.99064118 q 0,-0.29455499 0.144694,-0.42891341 0.144694,-0.13952605 0.361734,-0.13952605 0.206705,0 0.356567,0.13952605 0.149861,0.13952605 0.149861,0.42891341 0,0.28938732 -0.149861,0.43408102 -0.149862,0.1395261 -0.356567,0.1395261 -0.21704,0 -0.361734,-0.1395261 -0.144694,-0.1446937 -0.144694,-0.43408102 z" />
    <path
       id="path5742"
       style="font-style:normal;font-variant:normal;font-weight:normal;font-stretch:normal;font-family:'Open Sans';-inkscape-font-specification:'Open Sans';stroke-width:0.23177786;fill:#ffffff"
       d="m 53.497655,5.3521221 q 0,1.3849252 -0.69763,2.1652376 -0.69763,0.7751447 -1.927526,0.7751447 -0.759642,0 -1.348752,-0.3565666 -0.58911,-0.3565665 -0.909503,-1.023191 -0.320393,-0.6666245 -0.320393,-1.5606247 0,-1.3849252 0.692462,-2.1549023 0.692463,-0.7751447 1.922359,-0.7751447 1.188555,0 1.886186,0.7906476 0.702797,0.7906476 0.702797,2.1393994 z m -4.314972,0 q 0,1.0852026 0.434081,1.6536421 0.434081,0.5684394 1.276405,0.5684394 0.842324,0 1.276405,-0.5632718 0.439249,-0.5684395 0.439249,-1.6588097 0,-1.080035 -0.439249,-1.6381392 -0.434081,-0.5632718 -1.28674,-0.5632718 -0.842324,0 -1.271237,0.5529366 -0.428914,0.5529365 -0.428914,1.6484744 z" />
    <path
       id="path5744"
       style="font-style:normal;font-variant:normal;font-weight:normal;font-stretch:normal;font-family:'Open Sans';-inkscape-font-specification:'Open Sans';stroke-width:0.23177786;fill:#ffffff"
       d="m 58.649783,6.64403 q 0,0.7906476 -0.58911,1.219561 -0.58911,0.4289134 -1.653642,0.4289134 -1.126543,0 -1.756994,-0.3565666 V 7.1401226 q 0.408242,0.2067052 0.873329,0.3255608 0.470255,0.1188555 0.904336,0.1188555 0.671792,0 1.033526,-0.2118729 0.361734,-0.2170405 0.361734,-0.6562892 0,-0.3307284 -0.289387,-0.5632718 Q 57.249355,5.9153939 56.417367,5.5950008 55.626719,5.3004458 55.290823,5.0834053 54.960094,4.8611971 54.79473,4.582145 54.634534,4.3030929 54.634534,3.9155206 q 0,-0.6924626 0.563272,-1.0903703 0.563271,-0.4030752 1.545121,-0.4030752 0.914671,0 1.788001,0.3720694 l -0.30489,0.6976303 q -0.85266,-0.3513989 -1.545122,-0.3513989 -0.609781,0 -0.919839,0.1912023 -0.310058,0.1912024 -0.310058,0.5270984 0,0.2273758 0.113688,0.3875724 0.118856,0.1601966 0.377237,0.3048902 0.258382,0.1446937 0.992186,0.4185782 1.007688,0.3669018 1.359087,0.7389713 0.356566,0.3720694 0.356566,0.9353413 z" />
    <path
       id="path5746"
       style="font-style:normal;font-variant:normal;font-weight:normal;font-stretch:normal;font-family:'Open Sans';-inkscape-font-specification:'Open Sans';stroke-width:0.23177786;fill:#ffffff"
       d="m 60.887369,5.2901105 q 0.222208,-0.3152255 0.67696,-0.826821 L 63.39367,2.5254277 h 1.018024 L 62.117265,4.9387116 64.57189,8.1891518 H 63.533196 L 61.533323,5.5123187 60.887369,6.0704229 V 8.1891518 H 60.039878 V 0.14831726 h 0.847491 V 4.4116132 q 0,0.2842197 -0.04134,0.8784973 z" />
  </g>
</svg>
