<?xml version="1.0" encoding="UTF-8" standalone="no"?>
<svg
   xmlns:dc="http://purl.org/dc/elements/1.1/"
   xmlns:cc="http://creativecommons.org/ns#"
   xmlns:rdf="http://www.w3.org/1999/02/22-rdf-syntax-ns#"
   xmlns:svg="http://www.w3.org/2000/svg"
   xmlns="http://www.w3.org/2000/svg"
   id="svg18309"
   version="1.1"
   viewBox="0 0 42.333333 16.933334"
   height="64"
   width="160">
  <defs
     id="defs18303" />
  <metadata
     id="metadata18306">
    <rdf:RDF>
      <cc:Work
         rdf:about="">
        <dc:format>image/svg+xml</dc:format>
        <dc:type
           rdf:resource="http://purl.org/dc/dcmitype/StillImage" />
        <dc:title></dc:title>
      </cc:Work>
    </rdf:RDF>
  </metadata>
  <g
     transform="translate(0,-280.06666)"
     id="layer1">
    <g
       id="layer1-1"
       transform="matrix(0.26458334,0,0,0.26458334,33.866668,18.562504)">
      <g
         id="g52387"
         transform="matrix(0.70747881,0,0,0.70747881,-662.71504,-1311.0807)">
        <g
           style="fill:#ffffff"
           transform="matrix(0.04614941,0,0,0.04614941,936.26627,3294.9651)"
           id="g32476">
          <path
             id="path32480"
             d="M 925.7,421.4 C 870.1,365.6 805.6,322.1 732.1,291 c -73.5,-31.1 -151,-46.6 -232.7,-46.6 -81.3,0 -158.6,15.4 -231.8,46.3 -73.2,30.9 -137.7,74.1 -193.3,129.7 L 10,356.1 c 64.1,-63.9 138.3,-113.7 222.6,-149.3 84.3,-35.7 173.2,-53.5 266.8,-53.5 94,0 183.3,17.9 267.8,53.8 84.5,35.9 158.8,85.9 222.9,150 z M 795.5,551.6 C 776.6,532.5 756,515.4 733.6,500.2 711.2,485 687.5,472.1 662.6,461.5 637.7,450.9 611.4,442.7 583.8,437 c -27.6,-5.7 -55.7,-8.6 -84.4,-8.6 -56.5,0 -160.9,32.2 -160.9,32.2 l -74.82031,-66.93125 c 0,0 71.61953,-63.97734 235.82031,-61.26875 69.79051,1.15124 136.1,13.3 198.8,40 C 761,399 816.2,436.2 863.7,484 Z M 671.6,675.4 C 656.7,660.5 640.3,647.8 622.4,637.2 604.5,626.6 585,618.4 564,612.5 c -21,-5.8 -42.6,-8.8 -64.6,-8.8 -32.7,0 -93.1,18.6 -93.1,18.6 l -33.7,-80.7 c 0,0 82.3,-25.5 126.9,-25.5 45,0 87.6,8.6 127.8,25.8 40.2,17.2 75.6,41.1 106.2,71.6 z M 500.6,846.7 390.8,736.5 c 7,-6.8 14.6,-12.9 22.8,-18.5 8.2,-5.5 16.8,-10.2 25.9,-14.2 9.1,-3.9 18.8,-6.9 29,-8.9 10.2,-2 20.5,-3 30.9,-3 21.2,0 41.3,4 60.2,12.1 18.9,8.1 35.4,19.3 49.7,33.7 z"
             style="fill:#ffffff" />
        </g>
        <path
           style="fill:#ffffff;fill-opacity:1;stroke:none"
           d="m 6.8300781,13.628906 c -0.9921612,0.03891 -1.8919374,0.572461 -2.4765625,1.417969 -0.5659831,0.818547 -0.8541661,1.917841 -0.8242187,3.201172 h -0.00977 V 23.6875 H 10.511719 V 18.248047 H 10.5 A 0.67999576,0.67999576 0 0 0 10.46289,17.871094 C 10.374725,16.641496 10.02185,15.593225 9.4121094,14.845703 8.7623255,14.049153 7.8221049,13.589995 6.8300781,13.628906 Z m 0.054687,1.357422 c 0.5592337,-0.02193 1.0521379,0.203281 1.4726563,0.71875 0.4205112,0.51554 0.7412855,1.340231 0.7851562,2.445313 l 0.00391,0.09766 H 4.8867188 c -0.030194,-1.069662 0.2159797,-1.892709 0.5859374,-2.427735 0.3782536,-0.547093 0.8530243,-0.811911 1.4121094,-0.833984 z"
           transform="matrix(1.4134699,0,0,1.4134699,936.72776,3295.4244)"
           id="rect52322" />
      </g>
    </g>
    <g
       transform="translate(8.4666668,4.4748632e-6)"
       id="g18928">
      <path
         style="fill:#ffffff;fill-opacity:0.25098039;stroke-width:0.00863857"
         d="m 24.843671,292.08767 c -0.480304,-0.48203 -1.037492,-0.85781 -1.672427,-1.12647 -0.634935,-0.26866 -1.304424,-0.40255 -2.010195,-0.40255 -0.702316,0 -1.370077,0.13303 -2.002421,0.39996 -0.632343,0.26693 -1.189531,0.64012 -1.669835,1.12042 l -0.55546,-0.55546 c 0.553732,-0.552 1.194714,-0.9822 1.922945,-1.28973 0.728232,-0.3084 1.496201,-0.46217 2.304771,-0.46217 0.812025,0 1.58345,0.15463 2.313409,0.46476 0.729959,0.31012 1.371805,0.74205 1.925537,1.29578 z"
         id="path18921" />
      <path
         style="fill:#ffffff;stroke-width:0.00863857"
         d="m 23.718929,293.21242 c -0.163269,-0.165 -0.341223,-0.31272 -0.534727,-0.44403 -0.193504,-0.1313 -0.398238,-0.24274 -0.613339,-0.33431 -0.2151,-0.0916 -0.442294,-0.16241 -0.680719,-0.21164 -0.238424,-0.0492 -0.481168,-0.0743 -0.729095,-0.0743 -0.488079,0 -1.389946,0.27817 -1.389946,0.27817 l -0.646341,-0.57819 c 0,0 0.618691,-0.55268 2.037151,-0.52928 0.60289,0.01 1.175709,0.11489 1.717347,0.34554 0.541639,0.22979 1.018488,0.55114 1.42882,0.96407 z"
         id="path18919" />
      <path
         style="fill:#ffffff;stroke-width:0.00863857"
         d="m 22.648611,294.28187 c -0.128715,-0.12871 -0.270388,-0.23842 -0.425018,-0.32999 -0.15463,-0.0916 -0.323083,-0.16241 -0.504493,-0.21338 -0.181409,-0.0501 -0.368003,-0.076 -0.558051,-0.076 -0.282481,0 -0.804251,0.16068 -0.804251,0.16068 l -0.29112,-0.69713 c 0,0 0.710954,-0.22028 1.096235,-0.22028 0.388735,0 0.756738,0.0743 1.104009,0.22287 0.34727,0.14858 0.653076,0.35505 0.917416,0.61852 z"
         id="path18917" />
      <path
         style="fill:#ffffff;stroke-width:0.00863857"
         d="M 21.171415,295.76166 20.2229,294.80969 c 0.06047,-0.0587 0.126123,-0.11144 0.19696,-0.15982 0.07084,-0.0475 0.145128,-0.0881 0.223739,-0.12266 0.07861,-0.0337 0.162405,-0.0596 0.250518,-0.0769 0.08811,-0.0173 0.177091,-0.0259 0.266932,-0.0259 0.183138,0 0.356773,0.0345 0.520042,0.10452 0.163269,0.07 0.305805,0.16673 0.429337,0.29112 z"
         id="path18897" />
      <path
         style="fill:#ffffff;fill-opacity:1;stroke:none;stroke-width:0.26458335"
         d="m 18.740457,292.13934 c -0.262509,0.0103 -0.500575,0.15147 -0.655257,0.37517 -0.14975,0.21658 -0.225998,0.50743 -0.218075,0.84698 h -0.0026 v 1.43919 h 1.850018 v -1.43919 h -0.0031 a 0.17991556,0.17991556 0 0 0 -0.0098,-0.0997 c -0.02333,-0.32533 -0.116691,-0.60268 -0.278019,-0.80046 -0.171922,-0.21076 -0.420688,-0.33224 -0.683162,-0.32195 z m 0.01447,0.35915 c 0.147964,-0.006 0.278378,0.0538 0.389641,0.19017 0.11126,0.13641 0.196131,0.3546 0.207739,0.64699 l 0.001,0.0258 h -1.127064 c -0.008,-0.28301 0.05715,-0.50078 0.15503,-0.64234 0.100079,-0.14475 0.225696,-0.21482 0.37362,-0.22066 z"
         id="path18901" />
    </g>
    <g
       transform="translate(8.4666668,4.4748632e-6)"
       id="g18952">
      <path
         id="path18930"
         d="m 16.377008,292.08767 c -0.480304,-0.48203 -1.037492,-0.85781 -1.672427,-1.12647 -0.634935,-0.26866 -1.304424,-0.40255 -2.010195,-0.40255 -0.702316,0 -1.370077,0.13303 -2.002421,0.39996 -0.632343,0.26693 -1.1895312,0.64012 -1.6698352,1.12042 l -0.55546,-0.55546 c 0.553732,-0.552 1.194714,-0.9822 1.9229452,-1.28973 0.728232,-0.3084 1.496201,-0.46217 2.304771,-0.46217 0.812025,0 1.58345,0.15463 2.313409,0.46476 0.729959,0.31012 1.371805,0.74205 1.925537,1.29578 z"
         style="fill:#ffffff;fill-opacity:0.25098039;stroke-width:0.00863857" />
      <path
         id="path18932"
         d="m 15.252266,293.21242 c -0.163269,-0.165 -0.341223,-0.31272 -0.534727,-0.44403 -0.193504,-0.1313 -0.398238,-0.24274 -0.613339,-0.33431 -0.2151,-0.0916 -0.442294,-0.16241 -0.680719,-0.21164 -0.238424,-0.0492 -0.481168,-0.0743 -0.729095,-0.0743 -0.488079,0 -1.389946,0.27817 -1.389946,0.27817 l -0.646341,-0.57819 c 0,0 0.618691,-0.55268 2.037151,-0.52928 0.60289,0.01 1.175709,0.11489 1.717347,0.34554 0.541639,0.22979 1.018488,0.55114 1.42882,0.96407 z"
         style="fill:#ffffff;fill-opacity:0.25098039;stroke-width:0.00863857" />
      <path
         id="path18934"
         d="m 14.181948,294.28187 c -0.128715,-0.12871 -0.270388,-0.23842 -0.425018,-0.32999 -0.15463,-0.0916 -0.323083,-0.16241 -0.504493,-0.21338 -0.181409,-0.0501 -0.368003,-0.076 -0.558051,-0.076 -0.282481,0 -0.804251,0.16068 -0.804251,0.16068 l -0.29112,-0.69713 c 0,0 0.710954,-0.22028 1.096235,-0.22028 0.388735,0 0.756738,0.0743 1.104009,0.22287 0.34727,0.14858 0.653076,0.35505 0.917416,0.61852 z"
         style="fill:#ffffff;stroke-width:0.00863857" />
      <path
         id="path18936"
         d="m 12.704752,295.76166 -0.948515,-0.95197 c 0.06047,-0.0587 0.126123,-0.11144 0.19696,-0.15982 0.07084,-0.0475 0.145128,-0.0881 0.223739,-0.12266 0.07861,-0.0337 0.162405,-0.0596 0.250518,-0.0769 0.08811,-0.0173 0.177091,-0.0259 0.266932,-0.0259 0.183138,0 0.356773,0.0345 0.520042,0.10452 0.163269,0.07 0.305805,0.16673 0.429337,0.29112 z"
         style="fill:#ffffff;stroke-width:0.00863857" />
      <path
         id="path18938"
         d="m 10.273794,292.13934 c -0.262509,0.0103 -0.5005752,0.15147 -0.6552572,0.37517 -0.14975,0.21658 -0.225998,0.50743 -0.218075,0.84698 h -0.0026 v 1.43919 H 11.24788 v -1.43919 h -0.0031 a 0.17991556,0.17991556 0 0 0 -0.0098,-0.0997 c -0.02333,-0.32533 -0.116691,-0.60268 -0.278019,-0.80046 -0.171922,-0.21076 -0.420688,-0.33224 -0.683162,-0.32195 z m 0.01447,0.35915 c 0.147964,-0.006 0.278378,0.0538 0.389641,0.19017 0.11126,0.13641 0.196131,0.3546 0.207739,0.64699 l 0.001,0.0258 H 9.7595798 c -0.008,-0.28301 0.05715,-0.50078 0.15503,-0.64234 0.1000792,-0.14475 0.2256962,-0.21482 0.3736202,-0.22066 z"
         style="fill:#ffffff;fill-opacity:1;stroke:none;stroke-width:0.26458335" />
    </g>
    <g
       transform="translate(8.4666668,4.4748632e-6)"
       id="g19060">
      <path
         style="fill:#ffffff;fill-opacity:0.25098039;stroke-width:0.00863857"
         d="m 7.9103407,292.08767 c -0.480304,-0.48203 -1.037492,-0.85781 -1.672427,-1.12647 -0.634935,-0.26866 -1.304424,-0.40255 -2.010195,-0.40255 -0.702316,0 -1.370077,0.13303 -2.002421,0.39996 -0.632343,0.26693 -1.1895312,0.64012 -1.6698352,1.12042 L 2.5e-6,291.52357 c 0.553732,-0.552 1.194714,-0.9822 1.9229452,-1.28973 0.728232,-0.3084 1.496201,-0.46217 2.304771,-0.46217 0.812025,0 1.58345,0.15463 2.313409,0.46476 0.729959,0.31012 1.371805,0.74205 1.925537,1.29578 z"
         id="path18954" />
      <path
         style="fill:#ffffff;fill-opacity:0.25098039;stroke-width:0.00863857"
         d="m 6.7855987,293.21242 c -0.163269,-0.165 -0.341223,-0.31272 -0.534727,-0.44403 -0.193504,-0.1313 -0.398238,-0.24274 -0.613339,-0.33431 -0.2151,-0.0916 -0.442294,-0.16241 -0.680719,-0.21164 -0.238424,-0.0492 -0.481168,-0.0743 -0.729095,-0.0743 -0.488079,0 -1.389946,0.27817 -1.389946,0.27817 l -0.646341,-0.57819 c 0,0 0.618691,-0.55268 2.037151,-0.52928 0.60289,0.01 1.175709,0.11489 1.717347,0.34554 0.541639,0.22979 1.018488,0.55114 1.42882,0.96407 z"
         id="path18956" />
      <path
         style="fill:#ffffff;fill-opacity:0.25098039;stroke-width:0.00863857"
         d="m 5.7152807,294.28187 c -0.128715,-0.12871 -0.270388,-0.23842 -0.425018,-0.32999 -0.15463,-0.0916 -0.323083,-0.16241 -0.504493,-0.21338 -0.181409,-0.0501 -0.368003,-0.076 -0.558051,-0.076 -0.282481,0 -0.804251,0.16068 -0.804251,0.16068 l -0.29112,-0.69713 c 0,0 0.710954,-0.22028 1.096235,-0.22028 0.388735,0 0.756738,0.0743 1.104009,0.22287 0.34727,0.14858 0.653076,0.35505 0.917416,0.61852 z"
         id="path18958" />
      <path
         style="fill:#ffffff;stroke-width:0.00863857"
         d="m 4.2380847,295.76166 -0.948515,-0.95197 c 0.06047,-0.0587 0.126123,-0.11144 0.19696,-0.15982 0.07084,-0.0475 0.145128,-0.0881 0.223739,-0.12266 0.07861,-0.0337 0.162405,-0.0596 0.250518,-0.0769 0.08811,-0.0173 0.177091,-0.0259 0.266932,-0.0259 0.183138,0 0.356773,0.0345 0.520042,0.10452 0.163269,0.07 0.305805,0.16673 0.429337,0.29112 z"
         id="path18960" />
      <path
         style="fill:#ffffff;fill-opacity:1;stroke:none;stroke-width:0.26458335"
         d="m 1.8071267,292.13934 c -0.262509,0.0103 -0.5005752,0.15147 -0.6552572,0.37517 -0.14975,0.21658 -0.225998,0.50743 -0.218075,0.84698 h -0.0026 v 1.43919 h 1.8500182 v -1.43919 h -0.0031 a 0.17991556,0.17991556 0 0 0 -0.0098,-0.0997 c -0.02333,-0.32533 -0.116691,-0.60268 -0.278019,-0.80046 -0.171922,-0.21076 -0.420688,-0.33224 -0.683162,-0.32195 z m 0.01447,0.35915 c 0.147964,-0.006 0.278378,0.0538 0.389641,0.19017 0.11126,0.13641 0.196131,0.3546 0.207739,0.64699 l 10e-4,0.0258 H 1.2929125 c -0.008,-0.28301 0.05715,-0.50078 0.15503,-0.64234 0.1000792,-0.14475 0.2256962,-0.21482 0.3736202,-0.22066 z"
         id="path18962" />
    </g>
    <g
       id="layer1-4"
       transform="matrix(0.26458334,0,0,0.26458334,33.866669,10.09583)">
      <path
         id="path32460"
         d="m 29.897358,1033.7959 c -1.815325,-1.8218 -3.921233,-3.2421 -6.320988,-4.2575 -2.399755,-1.0154 -4.930109,-1.5215 -7.597592,-1.5215 -2.654423,0 -5.178248,0.5028 -7.5682077,1.5117 -2.3899603,1.0089 -4.4958679,2.4193 -6.3111929,4.2347 L -1.9e-7,1031.6639 c 2.09284769,-2.0863 4.51545769,-3.7123 7.26782989,-4.8746 2.7523723,-1.1656 5.6549333,-1.7468 8.7109483,-1.7468 3.069074,0 5.984695,0.5845 8.743597,1.7566 2.758903,1.1721 5.184777,2.8046 7.277625,4.8974 z m -4.250995,4.251 c -0.61708,-0.6236 -1.289665,-1.1819 -2.021019,-1.6782 -0.731354,-0.4963 -1.505152,-0.9174 -2.31813,-1.2635 -0.812979,-0.3461 -1.671667,-0.6138 -2.572799,-0.7999 -0.901133,-0.1862 -1.81859,-0.2808 -2.755637,-0.2808 -1.84471,0 -3.594736,0.3493 -5.253342,1.0513 -1.6586062,0.6987 -3.1180491,1.6814 -4.3717987,2.9417 l -2.2234466,-2.2234 c 1.5508621,-1.5444 3.3498623,-2.7491 5.3904704,-3.6111 2.0406079,-0.8619 4.1954899,-1.2929 6.4613819,-1.2929 2.278951,0 4.443628,0.4342 6.490766,1.306 2.047138,0.8685 3.849403,2.083 5.400265,3.6437 z m -4.045302,4.042 c -0.486481,-0.4864 -1.021936,-0.9011 -1.606367,-1.2472 -0.58443,-0.3461 -1.221099,-0.6138 -1.906744,-0.8064 -0.685644,-0.1894 -1.390878,-0.2873 -2.109172,-0.2873 -1.067646,0 -2.079788,0.2024 -3.03969,0.6072 -0.959902,0.4049 -1.80553,0.973 -2.540149,1.7011 l -2.0177535,-2.0178 c 0.9990817,-0.9925 2.1516175,-1.763 3.4576065,-2.3181 1.305989,-0.555 2.687073,-0.8326 4.143251,-0.8326 1.469237,0 2.860116,0.2808 4.172635,0.8424 1.312519,0.5616 2.46832,1.3419 3.467401,2.3377 z m -5.583104,5.5929 -3.58494,-3.598 c 0.228548,-0.222 0.476686,-0.4211 0.744414,-0.604 0.267728,-0.1795 0.548515,-0.333 0.845628,-0.4636 0.297112,-0.1273 0.613815,-0.2253 0.946842,-0.2906 0.333027,-0.065 0.669319,-0.098 1.008877,-0.098 0.692174,0 1.348434,0.1306 1.965513,0.395 0.61708,0.2645 1.155801,0.6302 1.622692,1.1003 l -3.549026,3.5588 z"
         style="fill:#ffffff" />
    </g>
    <g
       transform="translate(8.4666668,4.4748632e-6)"
       id="g19053">
      <g
         id="g19006">
        <path
           id="path19000"
           d="m 24.843678,283.621 c -0.480305,-0.48202 -1.037493,-0.85781 -1.672428,-1.12647 -0.634935,-0.26865 -1.304425,-0.40256 -2.010197,-0.40256 -0.702316,0 -1.370078,0.13303 -2.002421,0.39997 -0.632344,0.26694 -1.189532,0.64011 -1.669837,1.12043 l -0.55546,-0.55546 c 0.553733,-0.552 1.194715,-0.98222 1.922947,-1.28974 0.728232,-0.3084 1.496201,-0.46218 2.304771,-0.46218 0.812026,0 1.583451,0.15465 2.313411,0.46477 0.729959,0.31012 1.371805,0.74205 1.925538,1.29577 z"
           style="fill:#ffffff;fill-opacity:0.25098039;stroke-width:0.26458335" />
        <path
           id="path18998"
           d="m 23.718935,284.74574 c -0.163269,-0.16499 -0.341223,-0.31271 -0.534728,-0.44402 -0.193504,-0.13132 -0.398238,-0.24273 -0.613338,-0.3343 -0.215101,-0.0916 -0.442295,-0.16241 -0.68072,-0.21164 -0.238425,-0.0493 -0.481169,-0.0743 -0.729096,-0.0743 -0.488079,0 -0.951107,0.0924 -1.389946,0.27816 -0.43884,0.18486 -0.824984,0.44487 -1.156705,0.77832 l -0.588287,-0.58827 c 0.410332,-0.40862 0.886317,-0.72737 1.426228,-0.95544 0.539911,-0.22804 1.110057,-0.34208 1.709574,-0.34208 0.602973,0 1.17571,0.11488 1.717349,0.34555 0.541638,0.22979 1.018488,0.55112 1.42882,0.96406 z"
           style="fill:#ffffff;stroke-width:0.26458335" />
        <path
           id="path18996"
           d="m 22.648616,285.81519 c -0.128715,-0.1287 -0.270387,-0.23842 -0.425018,-0.32999 -0.154631,-0.0916 -0.323083,-0.1624 -0.504493,-0.21336 -0.18141,-0.0501 -0.368003,-0.076 -0.558052,-0.076 -0.282481,0 -0.550277,0.0536 -0.804251,0.16066 -0.253974,0.10713 -0.477713,0.25744 -0.672081,0.45008 l -0.533864,-0.53387 c 0.26434,-0.2626 0.569282,-0.46647 0.914825,-0.61334 0.345543,-0.14684 0.710955,-0.22029 1.096235,-0.22029 0.388736,0 0.756739,0.0743 1.10401,0.22289 0.347271,0.14859 0.653076,0.35504 0.917417,0.61851 z"
           style="fill:#ffffff;stroke-width:0.26458335" />
        <path
           id="path18989"
           d="M 21.17142,287.29497 20.222904,286.343 c 0.06047,-0.0587 0.126123,-0.11141 0.19696,-0.1598 0.07084,-0.0475 0.145128,-0.0881 0.223739,-0.12267 0.07861,-0.0337 0.162405,-0.0596 0.250518,-0.0769 0.08811,-0.0172 0.177091,-0.0259 0.266932,-0.0259 0.183138,0 0.356774,0.0346 0.520042,0.10451 0.16327,0.07 0.305806,0.16674 0.429338,0.29112 l -0.939013,0.9416 z"
           style="fill:#ffffff;stroke-width:0.26458335" />
      </g>
    </g>
    <g
       transform="translate(8.4666668,4.4748632e-6)"
       id="g19046">
      <path
         id="path19008"
         d="m 16.37701,283.621 c -0.480305,-0.48202 -1.037493,-0.85781 -1.672428,-1.12647 -0.634935,-0.26865 -1.304425,-0.40256 -2.010197,-0.40256 -0.702316,0 -1.370078,0.13303 -2.002421,0.39997 -0.632344,0.26694 -1.1895317,0.64011 -1.6698367,1.12043 l -0.55546,-0.55546 c 0.553733,-0.552 1.194715,-0.98222 1.9229467,-1.28974 0.728232,-0.3084 1.496201,-0.46218 2.304771,-0.46218 0.812026,0 1.583451,0.15465 2.313411,0.46477 0.729959,0.31012 1.371805,0.74205 1.925538,1.29577 z"
         style="fill:#ffffff;fill-opacity:0.25098039;stroke-width:0.26458335" />
      <path
         id="path19010"
         d="m 15.252267,284.74574 c -0.163269,-0.16499 -0.341223,-0.31271 -0.534728,-0.44402 -0.193504,-0.13132 -0.398238,-0.24273 -0.613338,-0.3343 -0.215101,-0.0916 -0.442295,-0.16241 -0.68072,-0.21164 -0.238425,-0.0493 -0.481169,-0.0743 -0.729096,-0.0743 -0.488079,0 -0.951107,0.0924 -1.389946,0.27816 -0.43884,0.18486 -0.824984,0.44487 -1.156705,0.77832 l -0.5882867,-0.58827 c 0.410332,-0.40862 0.8863167,-0.72737 1.4262277,-0.95544 0.539911,-0.22804 1.110057,-0.34208 1.709574,-0.34208 0.602973,0 1.17571,0.11488 1.717349,0.34555 0.541638,0.22979 1.018488,0.55112 1.42882,0.96406 z"
         style="fill:#ffffff;fill-opacity:0.25098039;stroke-width:0.26458335" />
      <path
         id="path19012"
         d="m 14.181948,285.81519 c -0.128715,-0.1287 -0.270387,-0.23842 -0.425018,-0.32999 -0.154631,-0.0916 -0.323083,-0.1624 -0.504493,-0.21336 -0.18141,-0.0501 -0.368003,-0.076 -0.558052,-0.076 -0.282481,0 -0.550277,0.0536 -0.804251,0.16066 -0.253974,0.10713 -0.477713,0.25744 -0.672081,0.45008 l -0.533864,-0.53387 c 0.26434,-0.2626 0.569282,-0.46647 0.914825,-0.61334 0.345543,-0.14684 0.710955,-0.22029 1.096235,-0.22029 0.388736,0 0.756739,0.0743 1.10401,0.22289 0.347271,0.14859 0.653076,0.35504 0.917417,0.61851 z"
         style="fill:#ffffff;stroke-width:0.26458335" />
      <path
         id="path19014"
         d="M 12.704752,287.29497 11.756236,286.343 c 0.06047,-0.0587 0.126123,-0.11141 0.19696,-0.1598 0.07084,-0.0475 0.145128,-0.0881 0.223739,-0.12267 0.07861,-0.0337 0.162405,-0.0596 0.250518,-0.0769 0.08811,-0.0172 0.177091,-0.0259 0.266932,-0.0259 0.183138,0 0.356774,0.0346 0.520042,0.10451 0.16327,0.07 0.305806,0.16674 0.429338,0.29112 l -0.939013,0.9416 z"
         style="fill:#ffffff;stroke-width:0.26458335" />
    </g>
    <g
       transform="translate(8.4666668,4.4748632e-6)"
       id="g19040">
      <path
         style="fill:#ffffff;fill-opacity:0.25098039;stroke-width:0.26458335"
         d="M 7.910343,283.621 C 7.430038,283.13898 6.87285,282.76319 6.237915,282.49453 5.60298,282.22588 4.93349,282.09197 4.227718,282.09197 c -0.702316,0 -1.370078,0.13303 -2.002421,0.39997 -0.632344,0.26694 -1.189532,0.64011 -1.669837,1.12043 L 0,283.05691 c 0.553733,-0.552 1.194715,-0.98222 1.922947,-1.28974 0.728232,-0.3084 1.496201,-0.46218 2.304771,-0.46218 0.812026,0 1.583451,0.15465 2.313411,0.46477 0.729959,0.31012 1.371805,0.74205 1.925538,1.29577 z"
         id="path19018" />
      <path
         style="fill:#ffffff;fill-opacity:0.25098039;stroke-width:0.26458335"
         d="m 6.7856,284.74574 c -0.163269,-0.16499 -0.341223,-0.31271 -0.534728,-0.44402 -0.193504,-0.13132 -0.398238,-0.24273 -0.613338,-0.3343 -0.215101,-0.0916 -0.442295,-0.16241 -0.68072,-0.21164 -0.238425,-0.0493 -0.481169,-0.0743 -0.729096,-0.0743 -0.488079,0 -0.951107,0.0924 -1.389946,0.27816 -0.43884,0.18486 -0.824984,0.44487 -1.156705,0.77832 L 1.09278,284.14969 c 0.410332,-0.40862 0.886317,-0.72737 1.426228,-0.95544 0.539911,-0.22804 1.110057,-0.34208 1.709574,-0.34208 0.602973,0 1.17571,0.11488 1.717349,0.34555 0.541638,0.22979 1.018488,0.55112 1.42882,0.96406 z"
         id="path19020" />
      <path
         style="fill:#ffffff;fill-opacity:0.25098039;stroke-width:0.26458335"
         d="m 5.715281,285.81519 c -0.128715,-0.1287 -0.270387,-0.23842 -0.425018,-0.32999 -0.154631,-0.0916 -0.323083,-0.1624 -0.504493,-0.21336 -0.18141,-0.0501 -0.368003,-0.076 -0.558052,-0.076 -0.282481,0 -0.550277,0.0536 -0.804251,0.16066 -0.253974,0.10713 -0.477713,0.25744 -0.672081,0.45008 l -0.533864,-0.53387 c 0.26434,-0.2626 0.569282,-0.46647 0.914825,-0.61334 0.345543,-0.14684 0.710955,-0.22029 1.096235,-0.22029 0.388736,0 0.756739,0.0743 1.10401,0.22289 0.347271,0.14859 0.653076,0.35504 0.917417,0.61851 z"
         id="path19022" />
      <path
         style="fill:#ffffff;stroke-width:0.26458335"
         d="M 4.238085,287.29497 3.289569,286.343 c 0.06047,-0.0587 0.126123,-0.11141 0.19696,-0.1598 0.07084,-0.0475 0.145128,-0.0881 0.223739,-0.12267 0.07861,-0.0337 0.162405,-0.0596 0.250518,-0.0769 0.08811,-0.0172 0.177091,-0.0259 0.266932,-0.0259 0.183138,0 0.356774,0.0346 0.520042,0.10451 0.16327,0.07 0.305806,0.16674 0.429338,0.29112 l -0.939013,0.9416 z"
         id="path19024" />
    </g>
    <g
       id="g19187">
      <path
         id="path19152"
         d="m 7.9103431,283.621 c -0.480305,-0.48202 -1.037493,-0.85781 -1.672428,-1.12647 -0.634935,-0.26865 -1.304425,-0.40256 -2.010197,-0.40256 -0.702316,0 -1.370078,0.13303 -2.002421,0.39997 -0.632344,0.26694 -1.189532,0.64011 -1.66983701,1.12043 L 8.7646486e-8,283.05691 C 0.55373309,282.50491 1.1947151,282.07469 1.9229471,281.76717 c 0.728232,-0.3084 1.496201,-0.46218 2.304771,-0.46218 0.812026,0 1.583451,0.15465 2.313411,0.46477 0.729959,0.31012 1.371805,0.74205 1.925538,1.29577 z"
         style="fill:#ffffff;fill-opacity:0.25098039;stroke-width:0.26458335" />
      <path
         id="path19154"
         d="m 6.7856001,284.74574 c -0.163269,-0.16499 -0.341223,-0.31271 -0.534728,-0.44402 -0.193504,-0.13132 -0.398238,-0.24273 -0.613338,-0.3343 -0.215101,-0.0916 -0.442295,-0.16241 -0.68072,-0.21164 -0.238425,-0.0493 -0.481169,-0.0743 -0.729096,-0.0743 -0.488079,0 -0.951107,0.0924 -1.389946,0.27816 -0.43884,0.18486 -0.824984,0.44487 -1.156705,0.77832 l -0.588287,-0.58827 c 0.410332,-0.40862 0.886317,-0.72737 1.426228,-0.95544 0.539911,-0.22804 1.110057,-0.34208 1.709574,-0.34208 0.602973,0 1.17571,0.11488 1.717349,0.34555 0.541638,0.22979 1.018488,0.55112 1.42882,0.96406 z"
         style="fill:#ffffff;fill-opacity:0.25098039;stroke-width:0.26458335" />
      <path
         id="path19156"
         d="m 5.7152811,285.81519 c -0.128715,-0.1287 -0.270387,-0.23842 -0.425018,-0.32999 -0.154631,-0.0916 -0.323083,-0.1624 -0.504493,-0.21336 -0.18141,-0.0501 -0.368003,-0.076 -0.558052,-0.076 -0.282481,0 -0.550277,0.0536 -0.804251,0.16066 -0.253974,0.10713 -0.477713,0.25744 -0.672081,0.45008 l -0.533864,-0.53387 c 0.26434,-0.2626 0.569282,-0.46647 0.914825,-0.61334 0.345543,-0.14684 0.710955,-0.22029 1.096235,-0.22029 0.388736,0 0.756739,0.0743 1.10401,0.22289 0.347271,0.14859 0.653076,0.35504 0.917417,0.61851 z"
         style="fill:#ffffff;fill-opacity:0.25098039;stroke-width:0.26458335" />
      <path
         id="path19158"
         d="M 4.2380851,287.29497 3.2895691,286.343 c 0.06047,-0.0587 0.126123,-0.11141 0.19696,-0.1598 0.07084,-0.0475 0.145128,-0.0881 0.223739,-0.12267 0.07861,-0.0337 0.162405,-0.0596 0.250518,-0.0769 0.08811,-0.0172 0.177091,-0.0259 0.266932,-0.0259 0.183138,0 0.356774,0.0346 0.520042,0.10451 0.16327,0.07 0.305806,0.16674 0.429338,0.29112 l -0.939013,0.9416 z"
         style="fill:#ffffff;stroke-width:0.26458335;fill-opacity:0.25098041" />
    </g>
    <g
       id="g19194">
      <path
         id="path19162"
         d="m 7.9103407,292.08767 c -0.480304,-0.48203 -1.037492,-0.85781 -1.672427,-1.12647 -0.634935,-0.26866 -1.304424,-0.40255 -2.010195,-0.40255 -0.702316,0 -1.370077,0.13303 -2.002421,0.39996 -0.632343,0.26693 -1.1895312,0.64012 -1.66983521,1.12042 L 2.4876465e-6,291.52357 C 0.55373449,290.97157 1.1947165,290.54137 1.9229477,290.23384 c 0.728232,-0.3084 1.496201,-0.46217 2.304771,-0.46217 0.812025,0 1.58345,0.15463 2.313409,0.46476 0.729959,0.31012 1.371805,0.74205 1.925537,1.29578 z"
         style="fill:#ffffff;fill-opacity:0.25098039;stroke-width:0.00863857" />
      <path
         id="path19164"
         d="m 6.7855987,293.21242 c -0.163269,-0.165 -0.341223,-0.31272 -0.534727,-0.44403 -0.193504,-0.1313 -0.398238,-0.24274 -0.613339,-0.33431 -0.2151,-0.0916 -0.442294,-0.16241 -0.680719,-0.21164 -0.238424,-0.0492 -0.481168,-0.0743 -0.729095,-0.0743 -0.488079,0 -1.389946,0.27817 -1.389946,0.27817 l -0.646341,-0.57819 c 0,0 0.618691,-0.55268 2.037151,-0.52928 0.60289,0.01 1.175709,0.11489 1.717347,0.34554 0.541639,0.22979 1.018488,0.55114 1.42882,0.96407 z"
         style="fill:#ffffff;fill-opacity:0.25098039;stroke-width:0.00863857" />
      <path
         id="path19166"
         d="m 5.7152807,294.28187 c -0.128715,-0.12871 -0.270388,-0.23842 -0.425018,-0.32999 -0.15463,-0.0916 -0.323083,-0.16241 -0.504493,-0.21338 -0.181409,-0.0501 -0.368003,-0.076 -0.558051,-0.076 -0.282481,0 -0.804251,0.16068 -0.804251,0.16068 l -0.29112,-0.69713 c 0,0 0.710954,-0.22028 1.096235,-0.22028 0.388735,0 0.756738,0.0743 1.104009,0.22287 0.34727,0.14858 0.653076,0.35505 0.917416,0.61852 z"
         style="fill:#ffffff;fill-opacity:0.25098039;stroke-width:0.00863857" />
      <path
         id="path19168"
         d="m 4.2380847,295.76166 -0.948515,-0.95197 c 0.06047,-0.0587 0.126123,-0.11144 0.19696,-0.15982 0.07084,-0.0475 0.145128,-0.0881 0.223739,-0.12266 0.07861,-0.0337 0.162405,-0.0596 0.250518,-0.0769 0.08811,-0.0173 0.177091,-0.0259 0.266932,-0.0259 0.183138,0 0.356773,0.0345 0.520042,0.10452 0.163269,0.07 0.305805,0.16673 0.429337,0.29112 z"
         style="fill:#ffffff;stroke-width:0.00863857;fill-opacity:0.25098041" />
      <path
         id="path19170"
         d="m 1.8071267,292.13934 c -0.262509,0.0103 -0.5005752,0.15147 -0.6552572,0.37517 -0.14975,0.21658 -0.22599801,0.50743 -0.21807501,0.84698 h -0.0026 v 1.43919 H 2.7812127 v -1.43919 h -0.0031 a 0.17991556,0.17991556 0 0 0 -0.0098,-0.0997 c -0.02333,-0.32533 -0.116691,-0.60268 -0.278019,-0.80046 -0.171922,-0.21076 -0.420688,-0.33224 -0.683162,-0.32195 z m 0.01447,0.35915 c 0.147964,-0.006 0.278378,0.0538 0.389641,0.19017 0.11126,0.13641 0.196131,0.3546 0.207739,0.64699 l 10e-4,0.0258 H 1.2929125 c -0.008,-0.28301 0.05715,-0.50078 0.15503,-0.64234 0.1000792,-0.14475 0.2256962,-0.21482 0.3736202,-0.22066 z"
         style="fill:#ffffff;fill-opacity:1;stroke:none;stroke-width:0.26458335" />
    </g>
  </g>
</svg>
